<svg height="512" viewBox="0 0 512 512" width="512" xmlns="http://www.w3.org/2000/svg"><g id="flat"><path d="m312.008 168a8 8 0 0 1 -7.853-9.57 83.037 83.037 0 0 1 50.745-61.008l2.126-.85a8 8 0 0 1 5.942 14.856l-2.126.85a67.082 67.082 0 0 0 -41 49.291 8 8 0 0 1 -7.834 6.431z" fill="#029532"/><g fill="#eaeae8"><path d="m272 336h-32l-80-144h192z"/><path d="m336 192a32 32 0 0 1 -64 0z"/><path d="m334.22 224-62.22 112h-32l-62.22-112z"/></g><path d="m334.22 224-62.22 112h-32l-62.22-112z" fill="#2ad3b3"/><path d="m272 448v-112h-32v112l-32 40h96z" fill="#eaeae8"/><path d="m88 24v32l72 8 48 160h32l-56-184z" fill="#cbcbcb"/><path d="m168 88-32 72 40-32 24 8 16-24 48-8-72-24z" fill="#fbb540"/><circle cx="304" cy="192" fill="#e82f3e" r="32"/><path d="m336 192a32 32 0 0 1 -64 0z" fill="#961b20"/><path d="m240 272a8 8 0 0 1 -8-8v-8a8 8 0 0 1 16 0v8a8 8 0 0 1 -8 8z" fill="#27c5a7"/><path d="m272 280a8 8 0 0 1 -8-8v-8a8 8 0 0 1 16 0v8a8 8 0 0 1 -8 8z" fill="#27c5a7"/><path d="m256 304a8 8 0 0 1 -8-8v-8a8 8 0 0 1 16 0v8a8 8 0 0 1 -8 8z" fill="#27c5a7"/><path d="m168 88 8 40 24 8 16-24-24-32z" fill="#e82f3e"/></g></svg>